<?xml version="1.0" encoding="UTF-8" standalone="no"?>
<!DOCTYPE svg PUBLIC "-//W3C//DTD SVG 1.1//EN"
 "http://www.w3.org/Graphics/SVG/1.1/DTD/svg11.dtd">
<!-- Generated by graphviz version 2.43.0 (0)
 -->
<!-- Title: jstack_camo_ticket_flow Pages: 1 -->
<svg width="434pt" height="459pt"
 viewBox="0.00 0.00 433.50 459.00" xmlns="http://www.w3.org/2000/svg" xmlns:xlink="http://www.w3.org/1999/xlink">
<g id="graph0" class="graph" transform="scale(1 1) rotate(0) translate(4 455)">
<title>jstack_camo_ticket_flow</title>
<polygon fill="white" stroke="transparent" points="-4,4 -4,-455 429.5,-455 429.5,4 -4,4"/>
<!-- user_create -->
<g id="node1" class="node">
<title>user_create</title>
<path fill="lightgrey" stroke="black" d="M312,-451C312,-451 183,-451 183,-451 177,-451 171,-445 171,-439 171,-439 171,-427 171,-427 171,-421 177,-415 183,-415 183,-415 312,-415 312,-415 318,-415 324,-421 324,-427 324,-427 324,-439 324,-439 324,-445 318,-451 312,-451"/>
<text text-anchor="middle" x="247.5" y="-429.3" font-family="Times,serif" font-size="14.00">User creates ticket</text>
</g>
<!-- rpc_create -->
<g id="node2" class="node">
<title>rpc_create</title>
<path fill="lightgrey" stroke="black" d="M318,-378C318,-378 177,-378 177,-378 171,-378 165,-372 165,-366 165,-366 165,-352 165,-352 165,-346 171,-340 177,-340 177,-340 318,-340 318,-340 324,-340 330,-346 330,-352 330,-352 330,-366 330,-366 330,-372 324,-378 318,-378"/>
<text text-anchor="middle" x="247.5" y="-362.8" font-family="Times,serif" font-size="14.00">RPC</text>
<text text-anchor="middle" x="247.5" y="-347.8" font-family="Times,serif" font-size="14.00">support.createTicket</text>
</g>
<!-- user_create&#45;&gt;rpc_create -->
<g id="edge1" class="edge">
<title>user_create&#45;&gt;rpc_create</title>
<path fill="none" stroke="black" d="M247.5,-414.94C247.5,-406.99 247.5,-397.31 247.5,-388.31"/>
<polygon fill="black" stroke="black" points="251,-388.2 247.5,-378.2 244,-388.2 251,-388.2"/>
</g>
<!-- ticket_db -->
<g id="node3" class="node">
<title>ticket_db</title>
<path fill="lightgrey" stroke="black" d="M321,-289C321,-289 174,-289 174,-289 168,-289 162,-283 162,-277 162,-277 162,-263 162,-263 162,-257 168,-251 174,-251 174,-251 321,-251 321,-251 327,-251 333,-257 333,-263 333,-263 333,-277 333,-277 333,-283 327,-289 321,-289"/>
<text text-anchor="middle" x="247.5" y="-273.8" font-family="Times,serif" font-size="14.00">SupportTicket</text>
<text text-anchor="middle" x="247.5" y="-258.8" font-family="Times,serif" font-size="14.00">TicketMessage tables</text>
</g>
<!-- rpc_create&#45;&gt;ticket_db -->
<g id="edge2" class="edge">
<title>rpc_create&#45;&gt;ticket_db</title>
<path fill="none" stroke="black" d="M247.5,-339.97C247.5,-328.19 247.5,-312.56 247.5,-299.16"/>
<polygon fill="black" stroke="black" points="251,-299 247.5,-289 244,-299 251,-299"/>
<text text-anchor="middle" x="291.5" y="-310.8" font-family="Times,serif" font-size="14.00">Insert ticket</text>
</g>
<!-- staff_dash -->
<g id="node4" class="node">
<title>staff_dash</title>
<path fill="lightgrey" stroke="black" d="M163,-199C163,-199 12,-199 12,-199 6,-199 0,-193 0,-187 0,-187 0,-175 0,-175 0,-169 6,-163 12,-163 12,-163 163,-163 163,-163 169,-163 175,-169 175,-175 175,-175 175,-187 175,-187 175,-193 169,-199 163,-199"/>
<text text-anchor="middle" x="87.5" y="-177.3" font-family="Times,serif" font-size="14.00">Staff ticket dashboard</text>
</g>
<!-- ticket_db&#45;&gt;staff_dash -->
<g id="edge3" class="edge">
<title>ticket_db&#45;&gt;staff_dash</title>
<path fill="none" stroke="black" d="M200.99,-250.89C188.59,-245.57 175.35,-239.44 163.5,-233 148.27,-224.72 132.22,-214.23 118.81,-204.93"/>
<polygon fill="black" stroke="black" points="120.61,-201.91 110.42,-199.02 116.58,-207.64 120.61,-201.91"/>
<text text-anchor="middle" x="203.5" y="-221.8" font-family="Times,serif" font-size="14.00">List tickets</text>
</g>
<!-- user_view -->
<g id="node7" class="node">
<title>user_view</title>
<path fill="lightgrey" stroke="black" d="M289.5,-200C289.5,-200 205.5,-200 205.5,-200 199.5,-200 193.5,-194 193.5,-188 193.5,-188 193.5,-174 193.5,-174 193.5,-168 199.5,-162 205.5,-162 205.5,-162 289.5,-162 289.5,-162 295.5,-162 301.5,-168 301.5,-174 301.5,-174 301.5,-188 301.5,-188 301.5,-194 295.5,-200 289.5,-200"/>
<text text-anchor="middle" x="247.5" y="-184.8" font-family="Times,serif" font-size="14.00">User views</text>
<text text-anchor="middle" x="247.5" y="-169.8" font-family="Times,serif" font-size="14.00">conversation</text>
</g>
<!-- ticket_db&#45;&gt;user_view -->
<g id="edge7" class="edge">
<title>ticket_db&#45;&gt;user_view</title>
<path fill="none" stroke="black" d="M247.5,-250.97C247.5,-239.19 247.5,-223.56 247.5,-210.16"/>
<polygon fill="black" stroke="black" points="251,-210 247.5,-200 244,-210 251,-210"/>
</g>
<!-- ticket_detail -->
<g id="node5" class="node">
<title>ticket_detail</title>
<path fill="lightgrey" stroke="black" d="M254,-111C254,-111 135,-111 135,-111 129,-111 123,-105 123,-99 123,-99 123,-87 123,-87 123,-81 129,-75 135,-75 135,-75 254,-75 254,-75 260,-75 266,-81 266,-87 266,-87 266,-99 266,-99 266,-105 260,-111 254,-111"/>
<text text-anchor="middle" x="194.5" y="-89.3" font-family="Times,serif" font-size="14.00">Ticket detail view</text>
</g>
<!-- staff_dash&#45;&gt;ticket_detail -->
<g id="edge4" class="edge">
<title>staff_dash&#45;&gt;ticket_detail</title>
<path fill="none" stroke="black" d="M108.9,-162.8C125.08,-149.8 147.48,-131.79 165.31,-117.46"/>
<polygon fill="black" stroke="black" points="167.54,-120.16 173.14,-111.17 163.15,-114.7 167.54,-120.16"/>
</g>
<!-- reply -->
<g id="node6" class="node">
<title>reply</title>
<path fill="lightgrey" stroke="black" d="M326.5,-38C326.5,-38 196.5,-38 196.5,-38 190.5,-38 184.5,-32 184.5,-26 184.5,-26 184.5,-12 184.5,-12 184.5,-6 190.5,0 196.5,0 196.5,0 326.5,0 326.5,0 332.5,0 338.5,-6 338.5,-12 338.5,-12 338.5,-26 338.5,-26 338.5,-32 332.5,-38 326.5,-38"/>
<text text-anchor="middle" x="261.5" y="-22.8" font-family="Times,serif" font-size="14.00">Staff reply</text>
<text text-anchor="middle" x="261.5" y="-7.8" font-family="Times,serif" font-size="14.00">add TicketMessage</text>
</g>
<!-- ticket_detail&#45;&gt;reply -->
<g id="edge5" class="edge">
<title>ticket_detail&#45;&gt;reply</title>
<path fill="none" stroke="black" d="M210.38,-74.94C218.5,-66.21 228.55,-55.4 237.59,-45.69"/>
<polygon fill="black" stroke="black" points="240.31,-47.9 244.56,-38.2 235.19,-43.14 240.31,-47.9"/>
</g>
<!-- reply&#45;&gt;ticket_db -->
<g id="edge6" class="edge">
<title>reply&#45;&gt;ticket_db</title>
<path fill="none" stroke="black" d="M273.86,-38.02C294.78,-70.89 332.81,-142.48 310.5,-200 303.99,-216.78 291.29,-231.98 278.98,-243.81"/>
<polygon fill="black" stroke="black" points="276.44,-241.4 271.43,-250.73 281.17,-246.56 276.44,-241.4"/>
<text text-anchor="middle" x="370.5" y="-132.8" font-family="Times,serif" font-size="14.00">Insert message</text>
</g>
</g>
</svg>
