<?xml version="1.0" encoding="UTF-8" standalone="no"?>
<!DOCTYPE svg PUBLIC "-//W3C//DTD SVG 1.1//EN"
 "http://www.w3.org/Graphics/SVG/1.1/DTD/svg11.dtd">
<!-- Generated by graphviz version 2.43.0 (0)
 -->
<!-- Title: jstack_camo_auth_rbac Pages: 1 -->
<svg width="460pt" height="282pt"
 viewBox="0.00 0.00 459.50 282.00" xmlns="http://www.w3.org/2000/svg" xmlns:xlink="http://www.w3.org/1999/xlink">
<g id="graph0" class="graph" transform="scale(1 1) rotate(0) translate(4 278)">
<title>jstack_camo_auth_rbac</title>
<polygon fill="white" stroke="transparent" points="-4,4 -4,-278 455.5,-278 455.5,4 -4,4"/>
<!-- login -->
<g id="node1" class="node">
<title>login</title>
<path fill="lightgrey" stroke="black" d="M259,-274C259,-274 188,-274 188,-274 182,-274 176,-268 176,-262 176,-262 176,-250 176,-250 176,-244 182,-238 188,-238 188,-238 259,-238 259,-238 265,-238 271,-244 271,-250 271,-250 271,-262 271,-262 271,-268 265,-274 259,-274"/>
<text text-anchor="middle" x="223.5" y="-252.3" font-family="Times,serif" font-size="14.00">Login Page</text>
</g>
<!-- auth -->
<g id="node2" class="node">
<title>auth</title>
<path fill="lightgrey" stroke="black" d="M267,-187C267,-187 180,-187 180,-187 174,-187 168,-181 168,-175 168,-175 168,-131 168,-131 168,-125 174,-119 180,-119 180,-119 267,-119 267,-119 273,-119 279,-125 279,-131 279,-131 279,-175 279,-175 279,-181 273,-187 267,-187"/>
<text text-anchor="middle" x="223.5" y="-171.8" font-family="Times,serif" font-size="14.00">BetterAuth</text>
<text text-anchor="middle" x="223.5" y="-156.8" font-family="Times,serif" font-size="14.00">Validate user</text>
<text text-anchor="middle" x="223.5" y="-141.8" font-family="Times,serif" font-size="14.00">Issue session</text>
<text text-anchor="middle" x="223.5" y="-126.8" font-family="Times,serif" font-size="14.00">Load role</text>
</g>
<!-- login&#45;&gt;auth -->
<g id="edge1" class="edge">
<title>login&#45;&gt;auth</title>
<path fill="none" stroke="black" d="M223.5,-237.87C223.5,-226.73 223.5,-211.66 223.5,-197.38"/>
<polygon fill="black" stroke="black" points="227,-197.18 223.5,-187.18 220,-197.18 227,-197.18"/>
<text text-anchor="middle" x="265" y="-208.8" font-family="Times,serif" font-size="14.00">Credentials</text>
</g>
<!-- user -->
<g id="node3" class="node">
<title>user</title>
<path fill="lightgrey" stroke="black" d="M123,-60.5C123,-60.5 12,-60.5 12,-60.5 6,-60.5 0,-54.5 0,-48.5 0,-48.5 0,-19.5 0,-19.5 0,-13.5 6,-7.5 12,-7.5 12,-7.5 123,-7.5 123,-7.5 129,-7.5 135,-13.5 135,-19.5 135,-19.5 135,-48.5 135,-48.5 135,-54.5 129,-60.5 123,-60.5"/>
<text text-anchor="middle" x="67.5" y="-45.3" font-family="Times,serif" font-size="14.00">User</text>
<text text-anchor="middle" x="67.5" y="-30.3" font-family="Times,serif" font-size="14.00">Camo tracker UI</text>
<text text-anchor="middle" x="67.5" y="-15.3" font-family="Times,serif" font-size="14.00">AI assistant</text>
</g>
<!-- auth&#45;&gt;user -->
<g id="edge2" class="edge">
<title>auth&#45;&gt;user</title>
<path fill="none" stroke="black" d="M168.98,-118.77C160.31,-113.05 151.55,-107.01 143.5,-101 129.7,-90.7 115.26,-78.55 102.72,-67.5"/>
<polygon fill="black" stroke="black" points="104.98,-64.82 95.18,-60.79 100.33,-70.05 104.98,-64.82"/>
<text text-anchor="middle" x="181.5" y="-89.8" font-family="Times,serif" font-size="14.00">role USER</text>
</g>
<!-- staff -->
<g id="node4" class="node">
<title>staff</title>
<path fill="lightgrey" stroke="black" d="M281.5,-60.5C281.5,-60.5 165.5,-60.5 165.5,-60.5 159.5,-60.5 153.5,-54.5 153.5,-48.5 153.5,-48.5 153.5,-19.5 153.5,-19.5 153.5,-13.5 159.5,-7.5 165.5,-7.5 165.5,-7.5 281.5,-7.5 281.5,-7.5 287.5,-7.5 293.5,-13.5 293.5,-19.5 293.5,-19.5 293.5,-48.5 293.5,-48.5 293.5,-54.5 287.5,-60.5 281.5,-60.5"/>
<text text-anchor="middle" x="223.5" y="-45.3" font-family="Times,serif" font-size="14.00">Staff</text>
<text text-anchor="middle" x="223.5" y="-30.3" font-family="Times,serif" font-size="14.00">Ticket dashboard</text>
<text text-anchor="middle" x="223.5" y="-15.3" font-family="Times,serif" font-size="14.00">Live chat</text>
</g>
<!-- auth&#45;&gt;staff -->
<g id="edge3" class="edge">
<title>auth&#45;&gt;staff</title>
<path fill="none" stroke="black" d="M223.5,-118.79C223.5,-103.85 223.5,-86.2 223.5,-70.96"/>
<polygon fill="black" stroke="black" points="227,-70.86 223.5,-60.86 220,-70.86 227,-70.86"/>
<text text-anchor="middle" x="263.5" y="-89.8" font-family="Times,serif" font-size="14.00">role STAFF</text>
</g>
<!-- admin -->
<g id="node5" class="node">
<title>admin</title>
<path fill="lightgrey" stroke="black" d="M439.5,-68C439.5,-68 323.5,-68 323.5,-68 317.5,-68 311.5,-62 311.5,-56 311.5,-56 311.5,-12 311.5,-12 311.5,-6 317.5,0 323.5,0 323.5,0 439.5,0 439.5,0 445.5,0 451.5,-6 451.5,-12 451.5,-12 451.5,-56 451.5,-56 451.5,-62 445.5,-68 439.5,-68"/>
<text text-anchor="middle" x="381.5" y="-52.8" font-family="Times,serif" font-size="14.00">Admin</text>
<text text-anchor="middle" x="381.5" y="-37.8" font-family="Times,serif" font-size="14.00">Weapon manager</text>
<text text-anchor="middle" x="381.5" y="-22.8" font-family="Times,serif" font-size="14.00">Reset progress</text>
<text text-anchor="middle" x="381.5" y="-7.8" font-family="Times,serif" font-size="14.00">Admin tools</text>
</g>
<!-- auth&#45;&gt;admin -->
<g id="edge4" class="edge">
<title>auth&#45;&gt;admin</title>
<path fill="none" stroke="black" d="M279.12,-120.21C288.78,-114.13 298.59,-107.6 307.5,-101 318.2,-93.09 329.18,-83.93 339.3,-75.01"/>
<polygon fill="black" stroke="black" points="341.73,-77.53 346.86,-68.26 337.07,-72.32 341.73,-77.53"/>
<text text-anchor="middle" x="367" y="-89.8" font-family="Times,serif" font-size="14.00">role ADMIN</text>
</g>
</g>
</svg>
