<?xml version="1.0" encoding="UTF-8" standalone="no"?>
<!DOCTYPE svg PUBLIC "-//W3C//DTD SVG 1.1//EN"
 "http://www.w3.org/Graphics/SVG/1.1/DTD/svg11.dtd">
<!-- Generated by graphviz version 2.43.0 (0)
 -->
<!-- Title: jstack_camo_user_progress Pages: 1 -->
<svg width="198pt" height="416pt"
 viewBox="0.00 0.00 198.00 416.00" xmlns="http://www.w3.org/2000/svg" xmlns:xlink="http://www.w3.org/1999/xlink">
<g id="graph0" class="graph" transform="scale(1 1) rotate(0) translate(4 412)">
<title>jstack_camo_user_progress</title>
<polygon fill="white" stroke="transparent" points="-4,4 -4,-412 194,-412 194,4 -4,4"/>
<!-- view_weapon -->
<g id="node1" class="node">
<title>view_weapon</title>
<path fill="lightgrey" stroke="black" d="M160.5,-408C160.5,-408 29.5,-408 29.5,-408 23.5,-408 17.5,-402 17.5,-396 17.5,-396 17.5,-382 17.5,-382 17.5,-376 23.5,-370 29.5,-370 29.5,-370 160.5,-370 160.5,-370 166.5,-370 172.5,-376 172.5,-382 172.5,-382 172.5,-396 172.5,-396 172.5,-402 166.5,-408 160.5,-408"/>
<text text-anchor="middle" x="95" y="-392.8" font-family="Times,serif" font-size="14.00">User views weapon</text>
<text text-anchor="middle" x="95" y="-377.8" font-family="Times,serif" font-size="14.00">and its challenges</text>
</g>
<!-- rpc_fetch -->
<g id="node2" class="node">
<title>rpc_fetch</title>
<path fill="lightgrey" stroke="black" d="M178,-334C178,-334 12,-334 12,-334 6,-334 0,-328 0,-322 0,-322 0,-308 0,-308 0,-302 6,-296 12,-296 12,-296 178,-296 178,-296 184,-296 190,-302 190,-308 190,-308 190,-322 190,-322 190,-328 184,-334 178,-334"/>
<text text-anchor="middle" x="95" y="-318.8" font-family="Times,serif" font-size="14.00">RPC endpoint</text>
<text text-anchor="middle" x="95" y="-303.8" font-family="Times,serif" font-size="14.00">fetchChallengesForUser</text>
</g>
<!-- view_weapon&#45;&gt;rpc_fetch -->
<g id="edge1" class="edge">
<title>view_weapon&#45;&gt;rpc_fetch</title>
<path fill="none" stroke="black" d="M95,-369.83C95,-362.13 95,-352.97 95,-344.42"/>
<polygon fill="black" stroke="black" points="98.5,-344.41 95,-334.41 91.5,-344.41 98.5,-344.41"/>
</g>
<!-- ui -->
<g id="node3" class="node">
<title>ui</title>
<path fill="lightgrey" stroke="black" d="M151.5,-260C151.5,-260 38.5,-260 38.5,-260 32.5,-260 26.5,-254 26.5,-248 26.5,-248 26.5,-234 26.5,-234 26.5,-228 32.5,-222 38.5,-222 38.5,-222 151.5,-222 151.5,-222 157.5,-222 163.5,-228 163.5,-234 163.5,-234 163.5,-248 163.5,-248 163.5,-254 157.5,-260 151.5,-260"/>
<text text-anchor="middle" x="95" y="-244.8" font-family="Times,serif" font-size="14.00">Render list with</text>
<text text-anchor="middle" x="95" y="-229.8" font-family="Times,serif" font-size="14.00">current progress</text>
</g>
<!-- rpc_fetch&#45;&gt;ui -->
<g id="edge2" class="edge">
<title>rpc_fetch&#45;&gt;ui</title>
<path fill="none" stroke="black" d="M95,-295.83C95,-288.13 95,-278.97 95,-270.42"/>
<polygon fill="black" stroke="black" points="98.5,-270.41 95,-260.41 91.5,-270.41 98.5,-270.41"/>
</g>
<!-- update -->
<g id="node4" class="node">
<title>update</title>
<path fill="lightgrey" stroke="black" d="M171.5,-186C171.5,-186 18.5,-186 18.5,-186 12.5,-186 6.5,-180 6.5,-174 6.5,-174 6.5,-160 6.5,-160 6.5,-154 12.5,-148 18.5,-148 18.5,-148 171.5,-148 171.5,-148 177.5,-148 183.5,-154 183.5,-160 183.5,-160 183.5,-174 183.5,-174 183.5,-180 177.5,-186 171.5,-186"/>
<text text-anchor="middle" x="95" y="-170.8" font-family="Times,serif" font-size="14.00">User updates</text>
<text text-anchor="middle" x="95" y="-155.8" font-family="Times,serif" font-size="14.00">progress for challenge</text>
</g>
<!-- ui&#45;&gt;update -->
<g id="edge3" class="edge">
<title>ui&#45;&gt;update</title>
<path fill="none" stroke="black" d="M95,-221.83C95,-214.13 95,-204.97 95,-196.42"/>
<polygon fill="black" stroke="black" points="98.5,-196.41 95,-186.41 91.5,-196.41 98.5,-196.41"/>
</g>
<!-- rpc_update -->
<g id="node5" class="node">
<title>rpc_update</title>
<path fill="lightgrey" stroke="black" d="M165,-112C165,-112 25,-112 25,-112 19,-112 13,-106 13,-100 13,-100 13,-86 13,-86 13,-80 19,-74 25,-74 25,-74 165,-74 165,-74 171,-74 177,-80 177,-86 177,-86 177,-100 177,-100 177,-106 171,-112 165,-112"/>
<text text-anchor="middle" x="95" y="-96.8" font-family="Times,serif" font-size="14.00">RPC endpoint</text>
<text text-anchor="middle" x="95" y="-81.8" font-family="Times,serif" font-size="14.00">updateUserProgress</text>
</g>
<!-- update&#45;&gt;rpc_update -->
<g id="edge4" class="edge">
<title>update&#45;&gt;rpc_update</title>
<path fill="none" stroke="black" d="M95,-147.83C95,-140.13 95,-130.97 95,-122.42"/>
<polygon fill="black" stroke="black" points="98.5,-122.41 95,-112.41 91.5,-122.41 98.5,-122.41"/>
</g>
<!-- db -->
<g id="node6" class="node">
<title>db</title>
<path fill="lightgrey" stroke="black" d="M140.5,-38C140.5,-38 49.5,-38 49.5,-38 43.5,-38 37.5,-32 37.5,-26 37.5,-26 37.5,-12 37.5,-12 37.5,-6 43.5,0 49.5,0 49.5,0 140.5,0 140.5,0 146.5,0 152.5,-6 152.5,-12 152.5,-12 152.5,-26 152.5,-26 152.5,-32 146.5,-38 140.5,-38"/>
<text text-anchor="middle" x="95" y="-22.8" font-family="Times,serif" font-size="14.00">Prisma</text>
<text text-anchor="middle" x="95" y="-7.8" font-family="Times,serif" font-size="14.00">UserProgress</text>
</g>
<!-- rpc_update&#45;&gt;db -->
<g id="edge5" class="edge">
<title>rpc_update&#45;&gt;db</title>
<path fill="none" stroke="black" d="M95,-73.83C95,-66.13 95,-56.97 95,-48.42"/>
<polygon fill="black" stroke="black" points="98.5,-48.41 95,-38.41 91.5,-48.41 98.5,-48.41"/>
</g>
</g>
</svg>
