<?xml version="1.0" encoding="UTF-8" standalone="no"?>
<!DOCTYPE svg PUBLIC "-//W3C//DTD SVG 1.1//EN"
 "http://www.w3.org/Graphics/SVG/1.1/DTD/svg11.dtd">
<!-- Generated by graphviz version 2.43.0 (0)
 -->
<!-- Title: jstack_camo_architecture Pages: 1 -->
<svg width="237pt" height="239pt"
 viewBox="0.00 0.00 236.50 239.00" xmlns="http://www.w3.org/2000/svg" xmlns:xlink="http://www.w3.org/1999/xlink">
<g id="graph0" class="graph" transform="scale(1 1) rotate(0) translate(4 235)">
<title>jstack_camo_architecture</title>
<polygon fill="white" stroke="transparent" points="-4,4 -4,-235 232.5,-235 232.5,4 -4,4"/>
<!-- browser -->
<g id="node1" class="node">
<title>browser</title>
<path fill="lightgrey" stroke="black" d="M164,-231C164,-231 27,-231 27,-231 21,-231 15,-225 15,-219 15,-219 15,-205 15,-205 15,-199 21,-193 27,-193 27,-193 164,-193 164,-193 170,-193 176,-199 176,-205 176,-205 176,-219 176,-219 176,-225 170,-231 164,-231"/>
<text text-anchor="middle" x="95.5" y="-215.8" font-family="Times,serif" font-size="14.00">User Browser</text>
<text text-anchor="middle" x="95.5" y="-200.8" font-family="Times,serif" font-size="14.00">Next.js 15 Frontend</text>
</g>
<!-- jstack -->
<g id="node2" class="node">
<title>jstack</title>
<path fill="lightgrey" stroke="black" d="M179,-142C179,-142 12,-142 12,-142 6,-142 0,-136 0,-130 0,-130 0,-116 0,-116 0,-110 6,-104 12,-104 12,-104 179,-104 179,-104 185,-104 191,-110 191,-116 191,-116 191,-130 191,-130 191,-136 185,-142 179,-142"/>
<text text-anchor="middle" x="95.5" y="-126.8" font-family="Times,serif" font-size="14.00">JStack App</text>
<text text-anchor="middle" x="95.5" y="-111.8" font-family="Times,serif" font-size="14.00">Next.js + Hono Backend</text>
</g>
<!-- browser&#45;&gt;jstack -->
<g id="edge1" class="edge">
<title>browser&#45;&gt;jstack</title>
<path fill="none" stroke="black" d="M95.5,-192.97C95.5,-181.19 95.5,-165.56 95.5,-152.16"/>
<polygon fill="black" stroke="black" points="99,-152 95.5,-142 92,-152 99,-152"/>
<text text-anchor="middle" x="162" y="-163.8" font-family="Times,serif" font-size="14.00">HTTP / WebSocket</text>
</g>
<!-- neon -->
<g id="node3" class="node">
<title>neon</title>
<path fill="lightgrey" stroke="black" d="M172,-53C172,-53 19,-53 19,-53 13,-53 7,-47 7,-41 7,-41 7,-12 7,-12 7,-6 13,0 19,0 19,0 172,0 172,0 178,0 184,-6 184,-12 184,-12 184,-41 184,-41 184,-47 178,-53 172,-53"/>
<text text-anchor="middle" x="95.5" y="-37.8" font-family="Times,serif" font-size="14.00">Neon Postgres</text>
<text text-anchor="middle" x="95.5" y="-22.8" font-family="Times,serif" font-size="14.00">Weapons Challenges</text>
<text text-anchor="middle" x="95.5" y="-7.8" font-family="Times,serif" font-size="14.00">UserProgress Support</text>
</g>
<!-- jstack&#45;&gt;neon -->
<g id="edge2" class="edge">
<title>jstack&#45;&gt;neon</title>
<path fill="none" stroke="black" d="M95.5,-103.78C95.5,-92.33 95.5,-77.16 95.5,-63.36"/>
<polygon fill="black" stroke="black" points="99,-63.17 95.5,-53.17 92,-63.17 99,-63.17"/>
<text text-anchor="middle" x="144.5" y="-74.8" font-family="Times,serif" font-size="14.00">Prisma Client</text>
</g>
</g>
</svg>
