<?xml version="1.0" encoding="UTF-8" standalone="no"?>
<!DOCTYPE svg PUBLIC "-//W3C//DTD SVG 1.1//EN"
 "http://www.w3.org/Graphics/SVG/1.1/DTD/svg11.dtd">
<!-- Generated by graphviz version 2.43.0 (0)
 -->
<!-- Title: jstack_camo_weapon_management Pages: 1 -->
<svg width="267pt" height="283pt"
 viewBox="0.00 0.00 267.00 283.00" xmlns="http://www.w3.org/2000/svg" xmlns:xlink="http://www.w3.org/1999/xlink">
<g id="graph0" class="graph" transform="scale(1 1) rotate(0) translate(4 279)">
<title>jstack_camo_weapon_management</title>
<polygon fill="white" stroke="transparent" points="-4,4 -4,-279 263,-279 263,4 -4,4"/>
<!-- admin_panel -->
<g id="node1" class="node">
<title>admin_panel</title>
<path fill="lightgrey" stroke="black" d="M170.5,-275C170.5,-275 88.5,-275 88.5,-275 82.5,-275 76.5,-269 76.5,-263 76.5,-263 76.5,-251 76.5,-251 76.5,-245 82.5,-239 88.5,-239 88.5,-239 170.5,-239 170.5,-239 176.5,-239 182.5,-245 182.5,-251 182.5,-251 182.5,-263 182.5,-263 182.5,-269 176.5,-275 170.5,-275"/>
<text text-anchor="middle" x="129.5" y="-253.3" font-family="Times,serif" font-size="14.00">Admin Panel</text>
</g>
<!-- add_weapon -->
<g id="node2" class="node">
<title>add_weapon</title>
<path fill="lightgrey" stroke="black" d="M178.5,-202C178.5,-202 80.5,-202 80.5,-202 74.5,-202 68.5,-196 68.5,-190 68.5,-190 68.5,-176 68.5,-176 68.5,-170 74.5,-164 80.5,-164 80.5,-164 178.5,-164 178.5,-164 184.5,-164 190.5,-170 190.5,-176 190.5,-176 190.5,-190 190.5,-190 190.5,-196 184.5,-202 178.5,-202"/>
<text text-anchor="middle" x="129.5" y="-186.8" font-family="Times,serif" font-size="14.00">Add weapon</text>
<text text-anchor="middle" x="129.5" y="-171.8" font-family="Times,serif" font-size="14.00">name category</text>
</g>
<!-- admin_panel&#45;&gt;add_weapon -->
<g id="edge1" class="edge">
<title>admin_panel&#45;&gt;add_weapon</title>
<path fill="none" stroke="black" d="M129.5,-238.94C129.5,-230.99 129.5,-221.31 129.5,-212.31"/>
<polygon fill="black" stroke="black" points="133,-212.2 129.5,-202.2 126,-212.2 133,-212.2"/>
</g>
<!-- add_challenge -->
<g id="node3" class="node">
<title>add_challenge</title>
<path fill="lightgrey" stroke="black" d="M247,-127C247,-127 12,-127 12,-127 6,-127 0,-121 0,-115 0,-115 0,-101 0,-101 0,-95 6,-89 12,-89 12,-89 247,-89 247,-89 253,-89 259,-95 259,-101 259,-101 259,-115 259,-115 259,-121 253,-127 247,-127"/>
<text text-anchor="middle" x="129.5" y="-111.8" font-family="Times,serif" font-size="14.00">Add challenge</text>
<text text-anchor="middle" x="129.5" y="-96.8" font-family="Times,serif" font-size="14.00">mode goal description camoName</text>
</g>
<!-- add_weapon&#45;&gt;add_challenge -->
<g id="edge2" class="edge">
<title>add_weapon&#45;&gt;add_challenge</title>
<path fill="none" stroke="black" d="M129.5,-163.96C129.5,-155.88 129.5,-146.18 129.5,-137.18"/>
<polygon fill="black" stroke="black" points="133,-137.09 129.5,-127.09 126,-137.09 133,-137.09"/>
</g>
<!-- db -->
<g id="node4" class="node">
<title>db</title>
<path fill="lightgrey" stroke="black" d="M216,-38C216,-38 43,-38 43,-38 37,-38 31,-32 31,-26 31,-26 31,-12 31,-12 31,-6 37,0 43,0 43,0 216,0 216,0 222,0 228,-6 228,-12 228,-12 228,-26 228,-26 228,-32 222,-38 216,-38"/>
<text text-anchor="middle" x="129.5" y="-22.8" font-family="Times,serif" font-size="14.00">Prisma</text>
<text text-anchor="middle" x="129.5" y="-7.8" font-family="Times,serif" font-size="14.00">Weapon Challenge tables</text>
</g>
<!-- add_challenge&#45;&gt;db -->
<g id="edge3" class="edge">
<title>add_challenge&#45;&gt;db</title>
<path fill="none" stroke="black" d="M129.5,-88.97C129.5,-77.19 129.5,-61.56 129.5,-48.16"/>
<polygon fill="black" stroke="black" points="133,-48 129.5,-38 126,-48 133,-48"/>
<text text-anchor="middle" x="183" y="-59.8" font-family="Times,serif" font-size="14.00">Create records</text>
</g>
</g>
</svg>
